<svg width="142" height="86" viewBox="0 0 142 86" fill="none" xmlns="http://www.w3.org/2000/svg">
<rect width="43" height="43" fill="#FBC63F"/>
<path d="M21.1365 30V12.5H24.4865L31.9365 24.85H30.1615L37.4865 12.5H40.8115L40.8615 30H37.0615L37.0365 18.325H37.7365L31.8865 28.15H30.0615L24.0865 18.325H24.9365V30H21.1365Z" fill="black"/>
<rect width="43" height="43" transform="translate(21 43)" fill="#FBC63F"/>
<path d="M47.3831 73V55.5H54.9581C56.5248 55.5 57.8748 55.7583 59.0081 56.275C60.1414 56.775 61.0164 57.5 61.6331 58.45C62.2498 59.4 62.5581 60.5333 62.5581 61.85C62.5581 63.15 62.2498 64.275 61.6331 65.225C61.0164 66.1583 60.1414 66.875 59.0081 67.375C57.8748 67.875 56.5248 68.125 54.9581 68.125H49.6331L51.4331 66.35V73H47.3831ZM58.5081 73L54.1331 66.65H58.4581L62.8831 73H58.5081ZM51.4331 66.8L49.6331 64.9H54.7331C55.9831 64.9 56.9164 64.6333 57.5331 64.1C58.1498 63.55 58.4581 62.8 58.4581 61.85C58.4581 60.8833 58.1498 60.1333 57.5331 59.6C56.9164 59.0667 55.9831 58.8 54.7331 58.8H49.6331L51.4331 56.875V66.8Z" fill="black"/>
<path d="M49.8676 39C49.2342 39 48.6176 38.8917 48.0176 38.675C47.4176 38.475 46.9009 38.175 46.4676 37.775L47.4926 35.975C47.8259 36.2917 48.1926 36.5333 48.5926 36.7C48.9926 36.8667 49.4176 36.95 49.8676 36.95C50.4509 36.95 50.9342 36.8 51.3176 36.5C51.7009 36.2 52.0592 35.6667 52.3926 34.9L53.2176 33.075L53.4676 32.775L58.6676 20.75H61.0176L54.5926 35.325C54.2092 36.2583 53.7759 36.9917 53.2926 37.525C52.8259 38.0583 52.3092 38.4333 51.7426 38.65C51.1759 38.8833 50.5509 39 49.8676 39ZM53.0176 34.425L46.9676 20.75H49.4676L54.6176 32.55L53.0176 34.425Z" fill="white"/>
<path d="M75.6452 73.15C74.2285 73.15 72.9785 72.8583 71.8952 72.275C70.8285 71.6917 69.9952 70.8917 69.3952 69.875C68.8119 68.8583 68.5202 67.6917 68.5202 66.375C68.5202 65.0583 68.8035 63.8917 69.3702 62.875C69.9535 61.8583 70.7452 61.0667 71.7452 60.5C72.7619 59.9167 73.9035 59.625 75.1702 59.625C76.4535 59.625 77.5869 59.9083 78.5702 60.475C79.5535 61.0417 80.3202 61.8417 80.8702 62.875C81.4369 63.8917 81.7202 65.0833 81.7202 66.45C81.7202 66.55 81.7119 66.6667 81.6952 66.8C81.6952 66.9333 81.6869 67.0583 81.6702 67.175H70.3952V65.45H80.4202L79.4452 66.05C79.4619 65.2 79.2869 64.4417 78.9202 63.775C78.5535 63.1083 78.0452 62.5917 77.3952 62.225C76.7619 61.8417 76.0202 61.65 75.1702 61.65C74.3369 61.65 73.5952 61.8417 72.9452 62.225C72.2952 62.5917 71.7869 63.1167 71.4202 63.8C71.0535 64.4667 70.8702 65.2333 70.8702 66.1V66.5C70.8702 67.3833 71.0702 68.175 71.4702 68.875C71.8869 69.5583 72.4619 70.0917 73.1952 70.475C73.9285 70.8583 74.7702 71.05 75.7202 71.05C76.5035 71.05 77.2119 70.9167 77.8452 70.65C78.4952 70.3833 79.0619 69.9833 79.5452 69.45L80.8702 71C80.2702 71.7 79.5202 72.2333 78.6202 72.6C77.7369 72.9667 76.7452 73.15 75.6452 73.15ZM88.4087 73L82.6087 59.75H85.1087L90.2587 71.75H89.0587L94.3087 59.75H96.6587L90.8587 73H88.4087ZM99.0235 73V59.75H101.424V73H99.0235ZM100.224 57.2C99.7569 57.2 99.3652 57.05 99.0485 56.75C98.7485 56.45 98.5985 56.0833 98.5985 55.65C98.5985 55.2 98.7485 54.825 99.0485 54.525C99.3652 54.225 99.7569 54.075 100.224 54.075C100.69 54.075 101.074 54.225 101.374 54.525C101.69 54.8083 101.849 55.1667 101.849 55.6C101.849 56.05 101.699 56.4333 101.399 56.75C101.099 57.05 100.707 57.2 100.224 57.2ZM112.031 73.15C110.614 73.15 109.364 72.8583 108.281 72.275C107.214 71.6917 106.381 70.8917 105.781 69.875C105.198 68.8583 104.906 67.6917 104.906 66.375C104.906 65.0583 105.189 63.8917 105.756 62.875C106.339 61.8583 107.131 61.0667 108.131 60.5C109.148 59.9167 110.289 59.625 111.556 59.625C112.839 59.625 113.973 59.9083 114.956 60.475C115.939 61.0417 116.706 61.8417 117.256 62.875C117.823 63.8917 118.106 65.0833 118.106 66.45C118.106 66.55 118.098 66.6667 118.081 66.8C118.081 66.9333 118.073 67.0583 118.056 67.175H106.781V65.45H116.806L115.831 66.05C115.848 65.2 115.673 64.4417 115.306 63.775C114.939 63.1083 114.431 62.5917 113.781 62.225C113.148 61.8417 112.406 61.65 111.556 61.65C110.723 61.65 109.981 61.8417 109.331 62.225C108.681 62.5917 108.173 63.1167 107.806 63.8C107.439 64.4667 107.256 65.2333 107.256 66.1V66.5C107.256 67.3833 107.456 68.175 107.856 68.875C108.273 69.5583 108.848 70.0917 109.581 70.475C110.314 70.8583 111.156 71.05 112.106 71.05C112.889 71.05 113.598 70.9167 114.231 70.65C114.881 70.3833 115.448 69.9833 115.931 69.45L117.256 71C116.656 71.7 115.906 72.2333 115.006 72.6C114.123 72.9667 113.131 73.15 112.031 73.15ZM124.119 73L119.194 59.75H121.469L125.844 71.75H124.769L129.319 59.75H131.344L135.794 71.75H134.744L139.219 59.75H141.369L136.419 73H134.119L129.944 62.05H130.644L126.419 73H124.119Z" fill="white"/>
</svg>
