<svg width="150" height="77" viewBox="0 0 150 77" fill="none" xmlns="http://www.w3.org/2000/svg">
<path d="M0 22.8C0 20.1996 0 18.8993 0.120781 17.8053C1.14841 8.4972 8.4972 1.14841 17.8053 0.120781C18.8993 0 20.1996 0 22.8 0H150V77H0V22.8Z" fill="#FBC63F"/>
<path d="M12.735 54V22.5H26.37C29.19 22.5 31.62 22.965 33.66 23.895C35.7 24.795 37.275 26.1 38.385 27.81C39.495 29.52 40.05 31.56 40.05 33.93C40.05 36.27 39.495 38.295 38.385 40.005C37.275 41.685 35.7 42.975 33.66 43.875C31.62 44.775 29.19 45.225 26.37 45.225H16.785L20.025 42.03V54H12.735ZM32.76 54L24.885 42.57H32.67L40.635 54H32.76ZM20.025 42.84L16.785 39.42H25.965C28.215 39.42 29.895 38.94 31.005 37.98C32.115 36.99 32.67 35.64 32.67 33.93C32.67 32.19 32.115 30.84 31.005 29.88C29.895 28.92 28.215 28.44 25.965 28.44H16.785L20.025 24.975V42.84ZM60.1208 54.16C58.8942 54.16 57.8142 53.92 56.8808 53.44C55.9608 52.96 55.2475 52.3067 54.7408 51.48C54.2342 50.64 53.9808 49.6867 53.9808 48.62C53.9808 47.54 54.2275 46.5867 54.7208 45.76C55.2275 44.92 55.9142 44.2667 56.7808 43.8C57.6475 43.32 58.6275 43.08 59.7208 43.08C60.7742 43.08 61.7208 43.3067 62.5608 43.76C63.4142 44.2 64.0875 44.84 64.5808 45.68C65.0742 46.5067 65.3208 47.5 65.3208 48.66C65.3208 48.78 65.3142 48.92 65.3008 49.08C65.2875 49.2267 65.2742 49.3667 65.2608 49.5H56.5208V47.68H63.6208L62.4208 48.22C62.4208 47.66 62.3075 47.1733 62.0808 46.76C61.8542 46.3467 61.5408 46.0267 61.1408 45.8C60.7408 45.56 60.2742 45.44 59.7408 45.44C59.2075 45.44 58.7342 45.56 58.3208 45.8C57.9208 46.0267 57.6075 46.3533 57.3808 46.78C57.1542 47.1933 57.0408 47.6867 57.0408 48.26V48.74C57.0408 49.3267 57.1675 49.8467 57.4208 50.3C57.6875 50.74 58.0542 51.08 58.5208 51.32C59.0008 51.5467 59.5608 51.66 60.2008 51.66C60.7742 51.66 61.2742 51.5733 61.7008 51.4C62.1408 51.2267 62.5408 50.9667 62.9008 50.62L64.5608 52.42C64.0675 52.98 63.4475 53.4133 62.7008 53.72C61.9542 54.0133 61.0942 54.16 60.1208 54.16ZM75.1227 54L70.6027 43.24H73.8227L77.5827 52.5H75.9827L79.8827 43.24H82.8827L78.3427 54H75.1227ZM89.1558 54V43.24H92.2758V54H89.1558ZM90.7158 41.74C90.1425 41.74 89.6758 41.5733 89.3158 41.24C88.9558 40.9067 88.7758 40.4933 88.7758 40C88.7758 39.5067 88.9558 39.0933 89.3158 38.76C89.6758 38.4267 90.1425 38.26 90.7158 38.26C91.2892 38.26 91.7558 38.42 92.1158 38.74C92.4758 39.0467 92.6558 39.4467 92.6558 39.94C92.6558 40.46 92.4758 40.8933 92.1158 41.24C91.7692 41.5733 91.3025 41.74 90.7158 41.74ZM105.511 54.16C104.285 54.16 103.205 53.92 102.271 53.44C101.351 52.96 100.638 52.3067 100.131 51.48C99.6248 50.64 99.3714 49.6867 99.3714 48.62C99.3714 47.54 99.6181 46.5867 100.111 45.76C100.618 44.92 101.305 44.2667 102.171 43.8C103.038 43.32 104.018 43.08 105.111 43.08C106.165 43.08 107.111 43.3067 107.951 43.76C108.805 44.2 109.478 44.84 109.971 45.68C110.465 46.5067 110.711 47.5 110.711 48.66C110.711 48.78 110.705 48.92 110.691 49.08C110.678 49.2267 110.665 49.3667 110.651 49.5H101.911V47.68H109.011L107.811 48.22C107.811 47.66 107.698 47.1733 107.471 46.76C107.245 46.3467 106.931 46.0267 106.531 45.8C106.131 45.56 105.665 45.44 105.131 45.44C104.598 45.44 104.125 45.56 103.711 45.8C103.311 46.0267 102.998 46.3533 102.771 46.78C102.545 47.1933 102.431 47.6867 102.431 48.26V48.74C102.431 49.3267 102.558 49.8467 102.811 50.3C103.078 50.74 103.445 51.08 103.911 51.32C104.391 51.5467 104.951 51.66 105.591 51.66C106.165 51.66 106.665 51.5733 107.091 51.4C107.531 51.2267 107.931 50.9667 108.291 50.62L109.951 52.42C109.458 52.98 108.838 53.4133 108.091 53.72C107.345 54.0133 106.485 54.16 105.511 54.16ZM120.053 54L116.173 43.24H119.113L122.333 52.5H120.933L124.293 43.24H126.933L130.193 52.5H128.793L132.113 43.24H134.873L130.973 54H127.953L125.093 46.06H126.013L123.053 54H120.053Z" fill="black"/>
<path d="M110.245 34V23.5H112.255L116.725 30.91H115.66L120.055 23.5H122.05L122.08 34H119.8L119.785 26.995H120.205L116.695 32.89H115.6L112.015 26.995H112.525V34H110.245ZM128.896 36.626C128.532 36.626 128.173 36.5697 127.817 36.457C127.462 36.3443 127.172 36.1883 126.946 35.989L127.687 34.546C127.843 34.6847 128.021 34.793 128.22 34.871C128.428 34.949 128.632 34.988 128.831 34.988C129.117 34.988 129.343 34.9187 129.507 34.78C129.681 34.65 129.837 34.429 129.975 34.117L130.339 33.259L130.495 33.038L133.004 27.006H134.954L131.795 34.429C131.57 34.9923 131.31 35.4343 131.015 35.755C130.729 36.0757 130.409 36.301 130.053 36.431C129.707 36.561 129.321 36.626 128.896 36.626ZM130.092 34.273L126.972 27.006H129.065L131.483 32.856L130.092 34.273Z" fill="black"/>
</svg>
